<svg xmlns="http://www.w3.org/2000/svg" width="80" height="64" viewBox="0 0 80 64">
  <g fill="#263238" transform="translate(-2 -5)">
    <path d="M7.40710656 60.6637338C6.20814505 60.2369847 5.16160959 59.4343022 4.2674688 58.2556621 4.47068262 56.4673805 5.27336515 53.155045 6.67554048 48.3185562 8.07771581 43.4820673 9.60179657 38.5237246 11.2478285 33.4433792 12.8938604 28.3630338 14.0420012 24.969414 14.6922854 23.2624179 15.1799986 21.9618495 15.8607547 20.65114 16.7345741 19.3302502 17.6083935 18.0093604 18.6549289 17.3489254 19.8742118 17.3489254 20.5651388 17.3489254 21.3373397 17.6334205 22.1908378 18.2024192 19.752272 23.7704778 17.3035822 30.4154699 14.844695 38.1375949 12.3858079 45.8597199 10.5061083 52.7079228 9.20553984 58.682409 9.89646681 58.9262655 10.9125207 59.048192 12.2537318 59.048192 16.4399365 59.048192 20.3923859 57.4326664 24.1111987 54.2015667 27.8300116 50.970467 30.8070493 46.9672149 33.0424013 42.1916902 35.2777533 37.4161656 36.3954125 32.8744049 36.3954125 28.566272 36.3954125 23.8517115 35.21679 20.3463257 32.8595098 18.0500096 30.5022295 15.7536935 27.3524626 14.6055526 23.4101146 14.6055526 20.768335 14.6055526 18.390769 15.0830979 16.2773453 16.0382029 14.1639216 16.9933078 12.5077538 18.3040173 11.3087923 19.9703706 10.1098308 21.6367239 9.51035904 23.5062629 9.51035904 25.5790438 9.51035904 26.6763984 9.69324873 27.6518101 10.0590336 28.5053082 8.39268031 28.5053082 7.16325516 28.1496893 6.37072128 27.438441 5.5781874 26.7271926 5.1819264 25.7822625 5.1819264 24.6036224 5.1819264 22.6934125 6.09637486 20.7629102 7.9252992 18.8120576 9.75422354 16.861205 12.2232344 15.2558399 15.3324058 13.9959142 18.4415771 12.7359886 21.8047154 12.1060352 25.4219213 12.1060352 31.0306226 12.1060352 35.1659617 13.6707581 37.8280627 16.8002509 40.4901637 19.9297436 41.8211942 24.0549222 41.8211942 29.1759104 41.8211942 34.8252545 40.3580767 40.118895 37.4317978 45.0569907 34.5055188 49.9950865 30.7054774 53.9373753 26.0315597 56.8839757 21.3576419 59.830576 16.5618678 61.3038541 11.6440934 61.3038541 10.0183829 61.3038541 8.60606807 61.0904828 7.40710656 60.6637338zM45.4071066 60.6637338C44.208145 60.2369847 43.1616096 59.4343022 42.2674688 58.2556621 42.4706826 56.4673805 43.2733651 53.155045 44.6755405 48.3185562 46.0777158 43.4820673 47.6017966 38.5237246 49.2478285 33.4433792 50.8938604 28.3630338 52.0420012 24.969414 52.6922854 23.2624179 53.1799986 21.9618495 53.8607547 20.65114 54.7345741 19.3302502 55.6083935 18.0093604 56.6549289 17.3489254 57.8742118 17.3489254 58.5651388 17.3489254 59.3373397 17.6334205 60.1908378 18.2024192 57.752272 23.7704778 55.3035822 30.4154699 52.844695 38.1375949 50.3858079 45.8597199 48.5061083 52.7079228 47.2055398 58.682409 47.8964668 58.9262655 48.9125207 59.048192 50.2537318 59.048192 54.4399365 59.048192 58.3923859 57.4326664 62.1111987 54.2015667 65.8300116 50.970467 68.8070493 46.9672149 71.0424013 42.1916902 73.2777533 37.4161656 74.3954125 32.8744049 74.3954125 28.566272 74.3954125 23.8517115 73.21679 20.3463257 70.8595098 18.0500096 68.5022295 15.7536935 65.3524626 14.6055526 61.4101146 14.6055526 58.768335 14.6055526 56.390769 15.0830979 54.2773453 16.0382029 52.1639216 16.9933078 50.5077538 18.3040173 49.3087923 19.9703706 48.1098308 21.6367239 47.510359 23.5062629 47.510359 25.5790438 47.510359 26.6763984 47.6932487 27.6518101 48.0590336 28.5053082 46.3926803 28.5053082 45.1632552 28.1496893 44.3707213 27.438441 43.5781874 26.7271926 43.1819264 25.7822625 43.1819264 24.6036224 43.1819264 22.6934125 44.0963749 20.7629102 45.9252992 18.8120576 47.7542235 16.861205 50.2232344 15.2558399 53.3324058 13.9959142 56.4415771 12.7359886 59.8047154 12.1060352 63.4219213 12.1060352 69.0306226 12.1060352 73.1659617 13.6707581 75.8280627 16.8002509 78.4901637 19.9297436 79.8211942 24.0549222 79.8211942 29.1759104 79.8211942 34.8252545 78.3580767 40.118895 75.4317978 45.0569907 72.5055188 49.9950865 68.7054774 53.9373753 64.0315597 56.8839757 59.3576419 59.830576 54.5618678 61.3038541 49.6440934 61.3038541 48.0183829 61.3038541 46.6060681 61.0904828 45.4071066 60.6637338z"/>
  </g>
</svg>
