<svg xmlns="http://www.w3.org/2000/svg" width="250" height="140" viewBox="0 0 250 140">
  <g fill="#263238" transform="translate(4 -13)">
    <path d="M7.64014766,129.810463 C6.40346462,129.370288 5.32400325,128.542352 4.40173116,127.326629 C4.61133845,125.482085 5.43927485,122.065538 6.88556517,117.076884 C8.3318555,112.08823 9.90388662,106.973889 11.6017057,101.733707 C13.2995248,96.4935244 14.4837882,92.9931351 15.1545316,91.2324338 C15.6575891,89.8909471 16.359763,88.5390004 17.2610743,87.176553 C18.1623857,85.8141055 19.2418471,85.1328921 20.4994908,85.1328921 C21.2121556,85.1328921 22.0086514,85.4263379 22.889002,86.0132383 C20.3737145,91.7564781 17.8479845,98.6105338 15.3117363,106.575611 C12.775488,114.540688 10.8366496,121.604348 9.49516293,127.766802 C10.2078277,128.018331 11.2558485,128.144094 12.6392566,128.144094 C16.9571669,128.144094 21.0339676,126.477741 24.8697811,123.144985 C28.7055945,119.812229 31.7762953,115.683027 34.0819756,110.757256 C36.3876558,105.831484 37.5404786,101.146831 37.5404786,96.7031568 C37.5404786,91.8402676 36.3247745,88.224596 33.8933299,85.8560336 C31.4618853,83.4874712 28.213021,82.3032077 24.1466395,82.3032077 C21.4217447,82.3032077 18.9693761,82.7957775 16.7894603,83.7809318 C14.6095444,84.7660861 12.9012706,86.1180328 11.6645876,87.8368126 C10.4279045,89.5555924 9.8095723,91.4839506 9.8095723,93.621945 C9.8095723,94.7538244 9.99821604,95.7599243 10.3755092,96.6402749 C8.65672936,96.6402749 7.38862425,96.2734677 6.5711558,95.5398422 C5.75368736,94.8062166 5.34495927,93.8315573 5.34495927,92.615835 C5.34495927,90.6455265 6.28817794,88.654287 8.17464358,86.642057 C10.0611092,84.629827 12.6077996,82.9739542 15.8147912,81.674389 C19.0217828,80.3748238 22.4907315,79.7250509 26.2217413,79.7250509 C32.0069027,79.7250509 36.2723471,81.3390029 39.0182026,84.5669552 C41.7640582,87.7949075 43.1369654,92.0498718 43.1369654,97.3319756 C43.1369654,103.159058 41.6278155,108.619246 38.6094705,113.712704 C35.5911254,118.806161 31.6715278,122.872481 26.8505601,125.911787 C22.0295923,128.951093 17.0829344,130.470723 12.0104379,130.470723 C10.3335795,130.470723 8.87683069,130.250639 7.64014766,129.810463 Z M42.7282332,125.314409 C41.9526862,124.18253 41.5649185,122.778182 41.5649185,121.101324 C41.5649185,119.340623 41.9317258,117.517066 42.6653513,115.630601 C43.3989769,113.744135 44.3526757,112.172104 45.5264766,110.91446 C46.7002774,109.656817 47.8950211,109.028004 49.1107434,109.028004 C49.6138009,109.028004 50.2635738,109.195687 51.0600815,109.531059 C51.3116102,107.602672 51.9928237,106.00968 53.1037424,104.752037 C54.214661,103.494393 55.7762119,102.86558 57.788442,102.86558 C59.4653003,102.86558 60.7019648,103.33719 61.4984725,104.280423 C62.2949802,105.223655 62.6932281,106.44984 62.6932281,107.959012 C62.6932281,109.426263 62.3054604,111.103096 61.5299134,112.989562 C60.7543665,114.876028 59.7587467,116.762465 58.5430244,118.648931 C59.0460819,118.90046 59.6329736,119.026222 60.3037169,119.026222 C61.4775177,119.026222 62.7351426,118.638454 64.0766293,117.862907 C65.418116,117.08736 66.4451763,115.903097 67.1578411,114.310081 L68.2897149,115.127546 C67.4093642,117.139776 66.2251008,118.669886 64.736889,119.717923 C63.2486772,120.765959 61.7080867,121.289969 60.1150713,121.289969 C59.1508777,121.289969 58.102857,121.101326 56.9709776,120.724033 C55.4198836,122.568577 53.72209,124.077727 51.8775458,125.251527 C50.0330016,126.425328 48.230406,127.01222 46.4697047,127.01222 C44.7509249,127.01222 43.5037802,126.446289 42.7282332,125.314409 Z M59.0146385,112.486507 C59.7063426,110.809649 60.0521894,109.300499 60.0521894,107.959012 C60.0521894,106.114468 59.4652978,105.19221 58.2914969,105.19221 C57.746518,105.19221 57.1805868,105.464695 56.5936864,106.009674 C56.0067859,106.554653 55.5246964,107.277787 55.1474033,108.179099 C54.7701101,109.08041 54.5814664,110.07603 54.5814664,111.165988 C54.5814664,112.130181 54.7491497,113.230603 55.0845214,114.467286 C55.4198931,115.703969 55.8600618,116.657668 56.4050407,117.328411 C57.4530772,115.777317 58.3229344,114.163365 59.0146385,112.486507 Z M51.5002546,122.547607 C52.5902125,121.709178 53.6801541,120.640197 54.770112,119.340631 C52.3805889,117.244558 51.122964,114.163377 50.9971996,110.096996 C50.4941421,110.348525 49.8862901,111.12406 49.1736253,112.423625 C48.4609605,113.72319 47.8531084,115.169459 47.3500509,116.762475 C46.8469934,118.35549 46.5954684,119.738877 46.5954684,120.912678 C46.5954684,122.841065 47.3081225,123.805244 48.7334521,123.805244 C49.4880384,123.805244 50.4102967,123.386036 51.5002546,122.547607 Z M67.0320774,124.937118 C66.1098053,123.637553 65.6486762,122.107443 65.6486762,120.346741 C65.6486762,118.837569 65.9840428,116.951131 66.6547862,114.687373 C67.3255295,112.423614 68.1115451,110.453335 69.0128564,108.776477 C69.9141678,107.099618 70.7001833,106.261202 71.3709267,106.261202 C71.6643769,106.261202 72.1150258,106.418405 72.722887,106.732816 C73.3307481,107.047227 73.8652387,107.434994 74.3263747,107.89613 C73.4460241,109.195696 72.5342461,111.061172 71.5910132,113.492617 C70.6477804,115.924062 70.1761711,118.020103 70.1761711,119.780804 C70.1761711,120.577312 70.2914534,121.405249 70.5220214,122.264638 C70.7525894,123.124028 71.2661196,123.553717 72.0626273,123.553717 C73.6137213,123.553717 75.468718,121.824483 77.6276731,118.365962 C79.7866282,114.907442 81.641625,111.396572 83.1927189,107.833248 C85.7080065,108.252463 86.9656314,108.965117 86.9656314,109.971232 C86.9656314,110.055075 86.7141064,110.662927 86.2110489,111.794807 C85.3306982,113.848958 84.5761233,115.756356 83.9473014,117.517057 C83.3184795,119.277758 83.0040733,120.807869 83.0040733,122.107434 C83.0040733,123.574685 83.5700045,124.308299 84.7018839,124.308299 C85.5822345,124.308299 86.6407355,123.899571 87.8774185,123.082103 C89.1141016,122.264634 90.3822067,121.090851 91.6817719,119.560718 C92.9813371,118.030585 94.1131995,116.25943 95.0773931,114.2472 L96.0206212,115.001782 C95.0983491,117.265541 93.9036054,119.298701 92.4363544,121.101324 C90.9691033,122.903947 89.386592,124.318775 87.6887729,125.34585 C85.9909538,126.372926 84.3665217,126.886456 82.8154277,126.886456 C80.9708835,126.886456 79.7866201,126.247164 79.2626018,124.968559 C78.7385836,123.689955 78.4765784,121.981681 78.4765784,119.843686 C77.0512488,122.023602 75.7097823,123.742356 74.4521385,125 C73.1944947,126.257644 71.8739886,126.886456 70.4905804,126.886456 C69.1071723,126.886456 67.9543495,126.236683 67.0320774,124.937118 Z M93.5682281,141.569374 C92.7297989,140.87767 92.3105906,139.88205 92.3105906,138.582485 C92.3105906,136.947548 92.9289229,135.459358 94.1656059,134.117872 C95.4022889,132.776385 96.8380774,131.634042 98.4730143,130.69081 C100.107951,129.747577 102.266874,128.647155 104.949847,127.389511 C105.997884,124.748459 106.8363,122.128407 107.465122,119.529277 C104.069484,123.805266 100.883501,125.943228 97.9070774,125.943228 C96.230219,125.943228 94.8992327,125.356336 93.9140784,124.182536 C92.9289241,123.008735 92.4363544,121.457664 92.4363544,119.529277 C92.4363544,116.720539 93.3586126,114.058567 95.2031568,111.543279 C97.047701,109.027991 99.3323862,107.005311 102.057281,105.475178 C104.782176,103.945045 107.381267,103.17999 109.854633,103.17999 C111.154199,103.17999 112.149818,103.410554 112.841522,103.87169 C113.533226,104.332826 113.879073,104.898758 113.879073,105.569501 C113.879073,105.988716 113.753311,106.366003 113.501782,106.701375 C113.250253,107.036746 113.040649,107.22539 112.872963,107.267312 C112.453749,106.848097 112.03454,106.554651 111.615326,106.386965 C111.196111,106.21928 110.672101,106.135438 110.043279,106.135438 C107.989128,106.135438 105.997888,106.900493 104.069501,108.430626 C102.141114,109.96076 100.579563,111.805276 99.3848014,113.964231 C98.1900399,116.123186 97.592668,118.062025 97.592668,119.780804 C97.592668,120.619234 97.7708316,121.258526 98.127164,121.698702 C98.4834964,122.138877 98.9551057,122.358961 99.5420061,122.358961 C100.673885,122.358961 102.067753,121.625347 103.723651,120.158096 C105.379548,118.690845 107.024941,116.804407 108.659878,114.498727 C109.121014,112.151125 109.665985,110.463812 110.294807,109.436736 C110.923628,108.409661 111.824926,107.89613 112.998727,107.89613 C113.543706,107.89613 114.151558,107.979972 114.822301,108.147658 C114.822301,109.237616 114.361172,111.417499 113.4389,114.687373 C112.516628,117.957246 111.405726,121.352834 110.106161,124.874236 C112.202234,123.993886 114.224914,122.620978 116.174262,120.755474 C118.12361,118.889969 119.517477,116.741526 120.355906,114.310081 L121.48778,115.441955 C120.565508,118.083007 118.920115,120.472494 116.551553,122.610489 C114.182991,124.748483 111.762063,126.383396 109.288697,127.515275 C107.360309,132.168557 105.35859,135.84711 103.283478,138.551044 C101.208365,141.254978 98.9760812,142.606925 96.586558,142.606925 C95.4127572,142.606925 94.4066573,142.261078 93.5682281,141.569374 Z M99.604888,137.387729 C100.946375,135.836635 102.329762,133.489069 103.755092,130.344959 C101.030197,131.686446 98.9131949,132.954551 97.4040224,134.149313 C95.8948499,135.344074 95.1402749,136.612179 95.1402749,137.953666 C95.1402749,138.498645 95.2555572,138.928333 95.4861253,139.242744 C95.7166933,139.557155 95.9996589,139.714358 96.3350305,139.714358 C97.1734597,139.714358 98.2634013,138.938823 99.604888,137.387729 Z M119.727088,125.377291 C119.307873,124.035805 119.098269,122.338011 119.098269,120.283859 C119.098269,116.510928 120.282532,111.386107 122.651095,104.909241 C125.019657,98.432376 127.734031,92.6787421 130.794297,87.648167 C133.854564,82.617592 136.348853,80.1023422 138.27724,80.1023422 C139.11567,80.1023422 139.775923,80.5634713 140.258019,81.4857434 C140.740116,82.4080155 140.981161,83.4350758 140.981161,84.5669552 C140.981161,86.4953423 140.278987,89.0734733 138.874618,92.3014257 C137.470249,95.529378 135.625733,98.6419996 133.341013,101.639384 C131.056294,104.636768 128.698247,106.848092 126.266802,108.273422 C124.841473,112.046353 124.128819,115.609623 124.128819,118.96334 L124.191701,120.283859 C124.275544,120.158095 124.464187,119.696966 124.757637,118.900458 C125.596067,116.720542 126.476404,114.750263 127.398676,112.989562 C128.320948,111.228861 129.589053,109.583468 131.20303,108.053335 C132.817006,106.523202 134.692963,105.758147 136.830957,105.758147 C138.759344,105.758147 140.163692,106.376479 141.044043,107.613162 C141.924393,108.849845 142.364562,110.306594 142.364562,111.983452 C142.364562,112.947646 142.2388,113.848944 141.987271,114.687373 C141.735742,115.525802 141.358455,116.594783 140.855397,117.894348 C140.771554,118.062034 140.614351,118.449802 140.383783,119.057663 C140.153215,119.665524 139.985532,120.210495 139.880728,120.692592 C139.775924,121.174688 139.723523,121.604377 139.723523,121.98167 C139.723523,123.323157 140.289455,123.99389 141.421334,123.99389 C142.343606,123.99389 143.433548,123.532761 144.691191,122.610489 C145.948835,121.688217 147.1855,120.451552 148.401222,118.900458 C149.616944,117.349364 150.664965,115.672531 151.545316,113.869908 L152.551426,114.9389 C151.000332,118.37646 149.124375,121.164195 146.923498,123.302189 C144.722621,125.440184 142.364575,126.509165 139.849287,126.509165 C138.298193,126.509165 137.092969,126.100437 136.233579,125.282968 C135.37419,124.4655 134.944501,123.406999 134.944501,122.107434 C134.944501,121.269005 135.237947,119.759855 135.824847,117.579939 C136.453669,115.525787 136.768075,113.995677 136.768075,112.989562 C136.768075,111.228861 136.0135,110.348523 134.504328,110.348523 C132.995155,110.348523 131.72705,111.134539 130.699975,112.706594 C129.672899,114.278648 128.509596,116.594774 127.210031,119.655041 C126.161994,122.254171 125.239736,124.19301 124.443228,125.471614 C123.64672,126.750219 122.724462,127.389511 121.676426,127.389511 C120.796075,127.389511 120.146302,126.718778 119.727088,125.377291 Z M132.55499,98.2123218 C134.148005,95.7389557 135.447551,93.3389882 136.453666,91.0123473 C137.459781,88.6857063 137.962831,87.0193533 137.962831,86.0132383 C137.459773,86.2228456 136.558476,87.2394257 135.25891,89.0630092 C133.959345,90.8865926 132.596918,93.1712779 131.171589,95.9171334 C129.746259,98.6629889 128.551515,101.440244 127.587322,104.248982 C129.306102,102.697888 130.961974,100.685688 132.55499,98.2123218 Z M150.979379,125.628819 C149.512128,124.203489 148.778513,122.379933 148.778513,120.158096 C148.778513,117.726651 149.595969,115.096119 151.230906,112.266421 C152.865843,109.436722 154.961885,107.068195 157.519094,105.160769 C160.076303,103.253342 162.591552,102.299644 165.064919,102.299644 C166.364484,102.299644 167.454425,102.62453 168.334776,103.274313 C169.215127,103.924095 169.655295,105.003557 169.655295,106.512729 C169.655295,108.524959 168.87976,110.421877 167.328666,112.203539 C165.777572,113.985201 163.775852,115.44195 161.323447,116.573829 C158.871042,117.705708 156.366272,118.418362 153.809063,118.711813 C153.72522,119.131027 153.683299,119.613117 153.683299,120.158096 C153.683299,121.248054 153.987225,122.337995 154.595087,123.427953 C155.202948,124.517911 156.512974,125.062882 158.525204,125.062882 C161.082413,125.062882 163.691984,124.025341 166.353997,121.950229 C169.01601,119.875117 171.164452,117.286506 172.799389,114.184318 L174.057026,115.190428 C172.380168,118.963359 169.980201,122.002619 166.857052,124.308299 C163.733903,126.61398 160.495519,127.766802 157.141802,127.766802 C154.500751,127.766802 152.44663,127.054148 150.979379,125.628819 Z M159.562755,114.561609 C161.428259,113.513572 163.010771,112.224507 164.310336,110.694374 C165.609901,109.16424 166.259674,107.665571 166.259674,106.19832 C166.259674,105.737184 166.175832,105.422777 166.008147,105.255092 C165.840461,105.087406 165.567975,105.003564 165.190682,105.003564 C163.97496,105.003564 162.643974,105.579976 161.197683,106.732816 C159.751393,107.885656 158.420407,109.342405 157.204684,111.103106 C155.988962,112.863807 155.087664,114.624482 154.500764,116.385183 C156.009936,116.217497 157.69725,115.609645 159.562755,114.561609 Z M179.150458,125.408732 C178.186265,124.591264 177.704175,123.490842 177.704175,122.107434 C177.704175,121.310926 177.861378,120.441069 178.175789,119.497836 C178.4902,118.554603 178.961809,117.412261 179.590631,116.070774 C180.13561,114.896973 180.554819,113.901353 180.848269,113.083885 C181.141719,112.266416 181.288442,111.543282 181.288442,110.91446 C181.288442,109.321445 180.240421,107.979978 178.144348,106.89002 C177.305919,108.986093 176.33126,111.103095 175.220341,113.24109 C174.109422,115.379084 173.113803,117.18168 172.233452,118.648931 L171.290224,116.825356 C173.218611,113.387797 174.916405,109.593962 176.383656,105.443737 C175.964441,105.024523 175.754837,104.458591 175.754837,103.745927 C175.754837,102.655969 176.090204,101.628908 176.760947,100.664715 C177.43169,99.7005213 178.081463,99.2184318 178.710285,99.2184318 C179.1295,99.2184318 179.475347,99.4699568 179.747836,99.9730143 C180.020326,100.476072 180.156568,100.89528 180.156568,101.230652 C180.156568,101.398338 180.062246,101.765145 179.8736,102.331085 L179.464868,103.557281 C179.506789,103.850731 179.674472,104.133697 179.967923,104.406186 C180.261373,104.678676 180.806344,105.066444 181.602851,105.569501 C183.070102,106.533695 184.212445,107.466433 185.029913,108.367744 C185.847382,109.269056 186.25611,110.47428 186.25611,111.983452 C186.25611,112.905724 186.098907,113.827982 185.784496,114.750255 C185.470085,115.672527 184.998476,116.783429 184.369654,118.082994 C183.447382,119.927538 182.986253,121.248044 182.986253,122.044552 C182.986253,123.008745 183.510263,123.490835 184.558299,123.490835 C185.815943,123.490835 187.18885,122.987785 188.677062,121.98167 C190.165274,120.975555 191.527701,119.749371 192.764384,118.30308 C194.001067,116.85679 194.912845,115.504843 195.499745,114.2472 L197.00891,115.379073 C196.170481,117.265539 194.996698,119.068135 193.487525,120.786914 C191.978353,122.505694 190.29104,123.910042 188.425535,125 C186.56003,126.089958 184.725993,126.634929 182.923371,126.634929 C181.372277,126.634929 180.114652,126.226201 179.150458,125.408732 Z M195.3111,126.226197 C194.221142,125.115278 193.676171,123.469885 193.676171,121.289969 C193.676171,119.655033 193.990577,117.569471 194.619399,115.033223 C195.248221,112.496975 196.086638,109.803561 197.134674,106.952902 C196.044716,106.743295 195.311102,106.554651 194.933809,106.386965 L194.933809,104.437627 C195.939924,104.563392 196.946023,104.668194 197.952138,104.752037 C199.838604,100.014912 201.861284,95.9485913 204.020239,92.5529532 C206.179194,89.157315 207.929389,87.4595214 209.270876,87.4595214 C209.732012,87.4595214 210.14074,87.6272047 210.497072,87.9625764 C210.853405,88.297948 211.031568,88.7381168 211.031568,89.2830957 C211.031568,89.9538391 210.738122,90.8551369 210.151222,91.9870163 C209.564322,93.1188957 208.600142,94.8376497 207.258656,97.1433299 C205.414112,100.245518 203.967843,102.844609 202.919807,104.940682 C207.740774,104.940682 211.57653,104.793959 214.427189,104.500509 L214.427189,106.575611 C209.480457,107.078669 205.267414,107.330193 201.787933,107.330193 C199.608017,112.486533 198.518075,116.699576 198.518075,119.96945 C198.518075,121.68823 198.790561,122.903934 199.33554,123.616599 C199.880519,124.329264 200.739896,124.685591 201.913697,124.685591 C204.009769,124.685591 206.158212,123.731892 208.359089,121.824465 C210.559965,119.917039 212.477843,117.328428 214.11278,114.058554 L214.993126,114.687373 C213.274346,118.586068 211.052542,121.761571 208.327648,124.213977 C205.602753,126.666382 202.773097,127.892566 199.838595,127.892566 C197.910208,127.892566 196.401058,127.337115 195.3111,126.226197 Z M212.226324,141.569374 C211.387895,140.87767 210.968686,139.86109 210.968686,138.519603 C210.968686,136.884666 211.587019,135.396476 212.823702,134.05499 C214.060385,132.713503 215.496173,131.581641 217.13111,130.659369 C218.766047,129.737097 220.883049,128.668115 223.482179,127.452393 C224.194844,125.64977 225.200944,122.379946 226.500509,117.642821 C224.991337,119.780815 223.513627,121.457648 222.067337,122.673371 C220.621047,123.889093 219.080456,124.496945 217.445519,124.496945 C216.062111,124.496945 214.825447,124.077737 213.735489,123.239308 C212.645531,122.400878 212.10056,121.080372 212.10056,119.277749 C212.10056,117.85242 212.435927,116.039344 213.10667,113.838467 C213.777413,111.637591 214.573909,109.709233 215.496181,108.053335 C216.418453,106.397437 217.214949,105.569501 217.885692,105.569501 C218.304907,105.569501 218.93372,105.789585 219.772149,106.229761 C220.610578,106.669936 221.113628,107.141545 221.281314,107.644603 C220.484806,108.734561 219.614949,110.558117 218.671716,113.115326 C217.728483,115.672535 217.256874,117.684735 217.256874,119.151986 C217.256874,120.70308 217.864726,121.478615 219.080448,121.478615 C220.338092,121.478615 221.700519,120.745001 223.16777,119.277749 C224.635021,117.810498 226.039369,116.007903 227.380855,113.869908 C227.464698,113.576458 227.590461,112.884764 227.758147,111.794807 C227.925832,110.704849 228.30312,109.75115 228.89002,108.933681 C229.476921,108.116213 230.315337,107.707485 231.405295,107.707485 C231.572981,107.707485 232.243714,107.791326 233.417515,107.959012 C233.375594,109.007049 232.883024,111.291734 231.939791,114.813136 C230.996558,118.334539 229.896137,121.772047 228.638493,125.125764 C230.692644,124.287335 232.631483,123.008749 234.455066,121.289969 C236.27865,119.57119 237.714438,117.307465 238.762475,114.498727 L239.831466,115.379073 C238.951116,118.271654 237.431486,120.703062 235.272531,122.673371 C233.113575,124.643679 230.629766,126.257631 227.821029,127.515275 C225.85072,132.168557 223.849,135.84711 221.81581,138.551044 C219.782619,141.254978 217.592255,142.606925 215.244654,142.606925 C214.070853,142.606925 213.064753,142.261078 212.226324,141.569374 Z M218.074338,137.607816 C219.499668,135.826154 220.904015,133.363305 222.287424,130.219196 C219.855979,131.434918 217.770418,132.776384 216.030677,134.243635 C214.290937,135.710886 213.421079,137.136195 213.421079,138.519603 C213.421079,138.980739 213.515401,139.389467 213.704048,139.745799 C213.892694,140.102132 214.19662,140.280295 214.615835,140.280295 C215.496186,140.280295 216.649008,139.389478 218.074338,137.607816 Z"/>
    <path d="M17.1308554,26.1476578 L30.0651731,26.1476578 C34.4894994,26.1476578 37.9657036,26.7458358 40.49389,27.9422098 C43.0220765,29.1385837 44.8166104,30.9669768 45.8775458,33.427444 C46.9384812,35.8879111 47.4689409,39.1496742 47.4689409,43.212831 L47.4689409,63.1899185 C47.4689409,67.3433677 46.9384812,70.7067081 45.8775458,73.2800407 C44.8166104,75.8533734 43.0446492,77.7833439 40.561609,79.0700102 C38.0785687,80.3566765 34.7152283,81 30.4714868,81 L17.1308554,81 L17.1308554,26.1476578 Z M30.200611,74.0249491 C32.4127741,74.0249491 34.0154397,73.6412123 35.0086558,72.8737271 C36.0018719,72.1062419 36.633909,71.0340361 36.9047862,69.6570774 C37.1756633,68.2801187 37.3110998,66.2372844 37.3110998,63.5285132 L37.3110998,42.5356415 C37.3110998,40.0977475 37.1530905,38.2467816 36.8370672,36.9826884 C36.5210439,35.7185952 35.8551476,34.7818259 34.8393585,34.1723523 C33.8235693,33.5628788 32.2321901,33.2581466 30.0651731,33.2581466 L27.0855397,33.2581466 L27.0855397,74.0249491 L30.200611,74.0249491 Z M59.5530096,26.1476578 L82.5774495,26.1476578 L82.5774495,33.1904277 L69.5076939,33.1904277 L69.5076939,48.9689409 L79.800973,48.9689409 L79.800973,55.9439919 L69.5076939,55.9439919 L69.5076939,74.160387 L82.7128874,74.160387 L82.7128874,81 L59.5530096,81 L59.5530096,26.1476578 Z M93.2394205,26.1476578 L100.214471,26.1476578 L113.555103,57.4338086 L113.555103,26.1476578 L121.816814,26.1476578 L121.816814,81 L115.180357,81 L101.772007,48.2240326 L101.772007,81 L93.2394205,81 L93.2394205,26.1476578 Z M134.848947,26.1476578 L141.823998,26.1476578 L155.16463,57.4338086 L155.16463,26.1476578 L163.42634,26.1476578 L163.42634,81 L156.789884,81 L143.381534,48.2240326 L143.381534,81 L134.848947,81 L134.848947,26.1476578 Z M176.72935,26.1476578 L186.616315,26.1476578 L186.616315,81 L176.72935,81 L176.72935,26.1476578 Z M202.458785,77.546334 C199.998318,74.7472705 198.655239,70.5713109 198.429508,65.0183299 L207.029814,63.3253564 C207.165252,66.8016128 207.718285,69.4539114 208.688928,71.282332 C209.659571,73.1107525 211.183232,74.0249491 213.259956,74.0249491 C214.794927,74.0249491 215.934851,73.5622076 216.679763,72.6367108 C217.424675,71.711214 217.797125,70.4584261 217.797125,68.8783096 C217.797125,66.7112926 217.311811,64.8828995 216.341168,63.3930754 C215.370525,61.9032512 213.846864,60.2328674 211.77014,58.3818737 L204.862808,52.354888 C202.740937,50.4587482 201.149558,48.5062049 200.088622,46.4971996 C199.027687,44.4881943 198.497227,42.0164777 198.497227,39.0819756 C198.497227,34.7479417 199.761302,31.407174 202.289488,29.0595723 C204.817674,26.7119706 208.316451,25.5381874 212.785924,25.5381874 C217.481127,25.5381874 220.844468,26.8812663 222.876046,29.5674644 C224.907624,32.2536624 226.081408,35.8765896 226.397431,40.4363544 L217.797125,41.9261711 C217.661687,38.991669 217.266664,36.7569663 216.612044,35.2219959 C215.957424,33.6870256 214.682064,32.9195519 212.785924,32.9195519 C211.250954,32.9195519 210.043311,33.3935798 209.162961,34.3416497 C208.28261,35.2897196 207.842441,36.5312211 207.842441,38.0661914 C207.842441,39.8268927 208.203605,41.2941218 208.925944,42.4679226 C209.648283,43.6417235 210.776921,44.9283705 212.311891,46.3279022 L219.151504,52.354888 C221.724837,54.6573435 223.733812,57.0500555 225.17849,59.5330957 C226.623168,62.016136 227.345496,64.9280213 227.345496,68.2688391 C227.345496,70.8873179 226.769891,73.2123116 225.618663,75.24389 C224.467435,77.2754684 222.853483,78.8668476 220.776759,80.0180754 C218.700034,81.1693031 216.307322,81.7449084 213.598551,81.7449084 C208.632471,81.7449084 204.919253,80.3453976 202.458785,77.546334 Z"/>
  </g>
</svg>
