<svg xmlns="http://www.w3.org/2000/svg" width="500" height="500" viewBox="0 0 500 500">
  <g fill="none" fill-rule="evenodd">
    <g transform="translate(365 348)">
      <path fill="#FFF59D" d="M37.4065544,3.5421659 L46.1415026,10.3134883 C44.9007769,20.9043008 48.5474864,28.661341 57.0816312,33.5846088 C57.5025205,38.4140938 57.7129651,40.8288363 57.7129651,40.8288363 C54.2767002,41.0908962 52.5585677,41.2219262 52.5585677,41.2219262 C49.3443834,46.8575447 47.8516561,51.3474825 48.0803858,54.6917396 C45.0301306,57.5086745 42.8818001,59.7594632 41.6353943,61.4441059 C40.8349795,62.5259469 39.9130791,64.4248836 38.8696931,67.1409161 C8.12815433,69.3105594 -0.0253283721,64.5416009 14.409245,52.8340407 C23.4666755,53.14532 30.7883533,44.5528807 36.3742786,27.0567228 L37.4065544,3.5421659 Z"/>
      <path stroke="#263238" stroke-width="10" d="M30.4316406,0.691500597 L39.1981934,7.45723952 C37.9529785,18.0393191 41.6128825,25.789963 50.1779053,30.7091712 C50.6003174,35.5346739 50.8115234,37.9474253 50.8115234,37.9474253 C47.3628255,38.2092691 45.6384766,38.340191 45.6384766,38.340191 C42.4126628,43.9711626 40.9145345,48.4573981 41.1440918,51.7988975 C38.0828003,54.6135096 35.9266968,56.8624424 34.6757812,58.545696 C33.8724704,59.6266449 32.9472344,61.5240158 31.9000732,64.2378087 C1.04730632,66.405663 -7.13567708,61.6406369 7.35112305,49.9427305 C16.4413249,50.2537531 23.7894938,41.6683989 29.3956299,24.1866679 L30.4316406,0.691500597 Z"/>
    </g>
    <path fill="#FFF59D" d="M275.929926,448.528359 C277.299516,446.929636 278.325914,445.554312 279.009121,444.402386 C283.258329,437.237983 283.918592,429.786839 286.690849,425.706672 C288.971837,422.349547 292.732579,417.962039 297.973075,412.544147 C324.578861,389.736952 341.12586,367.343134 347.614071,345.362692 C345.919875,328.149213 348.824875,316.760913 356.329072,311.197794 C363.833268,305.634674 368.736329,295.278651 371.038254,280.129725 C379.454706,316.751892 387.36483,338.605295 394.768628,345.689934 C398.738593,349.488763 404.806579,354.055191 412.972588,359.389216 C412.991205,369.340177 416.789515,376.726742 424.367516,381.54891 L425.045726,400.563885 C421.531667,404.112336 418.523273,412.11514 416.020544,424.572298 C412.455504,425.110675 407.792809,425.761169 402.032459,426.52378 C394.805531,430.769949 393.271912,434.990178 397.431601,439.184467 C401.59129,443.378756 413.839965,443.378756 434.177627,439.184467 C435.06196,434.356312 439.402837,430.52618 447.20026,427.694071 L448.370172,400.614767 C452.298472,393.108147 453.020234,380.27752 450.535458,362.122887 C438.963996,354.176618 436.278084,333.34219 442.477723,299.619601 C453.63295,282.66286 457.39336,257.011917 453.758951,222.666769 C460.013113,208.323312 461.492874,199.063085 458.198236,194.886089 C472.147715,201.772009 498.565705,184.197836 491.376677,130.071155 C488.063557,105.12645 470.631948,56.7833559 458.198236,36.5237449 C454.49649,30.492085 451.220469,30.492085 448.370172,36.5237449 C467.379103,86.5421558 472.752257,120.154334 464.489633,137.360279 C456.227009,154.566224 415.661728,165.143733 342.793792,169.092808 C326.823937,176.86814 315.839591,185.605577 309.840756,195.305119 C299.546701,202.923119 292.984685,208.334922 290.154708,211.54053 C287.324731,214.746137 285.1262,219.257691 283.559114,225.075193 C276.940671,227.682291 272.163944,230.146586 269.228932,232.468076 C266.29392,234.789566 262.318079,239.248243 257.301409,245.844107 C245.844649,262.678143 236.658558,274.8912 229.743136,282.483276 C221.937047,291.053168 207.269658,298.972773 195.28208,311.197794 C186.227464,320.431758 171.55186,337.454678 151.255268,362.266554 C143.914988,374.406813 138.163232,384.702692 134,393.154194 C140.513486,393.466579 144.427319,394.495259 145.741499,396.240234 C158.809859,381.266927 168.16728,373.186849 173.813765,372 C193.514937,372.406901 201.994103,379.548503 199.251265,393.424805 C210.345666,389.163737 218.750288,393.114909 224.465132,405.27832 C251.891564,396.951497 263.678999,403.616862 259.827437,425.274414 C265.431603,432.205404 267.866825,436.927734 267.133101,439.441406 C270.294715,442.850267 273.22699,445.879251 275.929926,448.528359 Z"/>
    <path stroke="#263238" stroke-width="10" d="M268.388422,441.06867 C269.305618,439.937982 270.024416,438.935868 270.544816,438.062328 C274.809398,430.903833 275.472051,423.458833 278.254338,419.38203 C280.543579,416.027674 284.317928,411.643784 289.577385,406.230359 C316.279435,383.441971 332.886304,361.066618 339.39799,339.1043 C337.697665,321.905015 340.613176,310.526106 348.144523,304.967574 C355.675871,299.409041 360.596672,289.061558 362.906926,273.925123 C371.35383,310.517092 379.292575,332.352475 386.723161,339.431273 C390.707489,343.226969 396.79743,347.789631 404.992985,353.119259 C405.01167,363.062014 408.823722,370.442488 416.429142,375.26068 L417.109806,394.259976 C413.583032,397.805501 410.563753,405.801706 408.05197,418.248592 C404.474031,418.786525 399.794465,419.436483 394.013273,420.198465 C386.760197,424.441132 385.221029,428.657881 389.395768,432.848712 C393.570508,437.039542 405.863501,437.039542 426.274748,432.848712 C427.16228,428.024538 431.518864,424.197565 439.344499,421.36779 L440.518644,394.310816 C444.461157,386.810386 445.185531,373.990339 442.691764,355.850675 C431.078434,347.910959 428.382805,327.09371 434.604875,293.398928 C445.800464,276.45617 449.574479,250.826377 445.926921,216.50955 C452.203711,202.17792 453.688827,192.925329 450.382267,188.751777 C464.382218,195.632019 490.895793,178.072337 483.680754,123.990288 C480.355646,99.0661511 462.860967,50.7629201 450.382267,30.5200147 C446.667128,24.4933284 443.379254,24.4933284 440.518644,30.5200147 C459.596353,80.4971816 464.988947,114.081644 456.696428,131.273401 C448.403908,148.465158 407.691856,159.033946 334.56027,162.979765 C318.532634,170.748685 307.508545,179.478917 301.488005,189.170462 C291.156704,196.78218 284.570945,202.189521 281.730729,205.392485 C278.890513,208.595448 276.684027,213.103283 275.111271,218.915987 C268.468882,221.520936 263.674871,223.983199 260.72924,226.302775 C257.783609,228.622351 253.793383,233.077351 248.758561,239.667776 C237.260349,256.487931 228.041022,268.690917 221.100578,276.276733 C213.266245,284.839559 198.545787,292.752634 186.514836,304.967574 C177.427458,314.193924 162.698756,331.202807 142.328727,355.994224 C132.213284,372.65033 125.103708,385.831878 121,395.538871 C122.953276,394.657966 125.111183,393.807153 127.473722,392.986432 C137.741301,392.864036 143.719165,393.923606 145.407316,396.165143 C158.475676,381.191835 167.833097,373.111757 173.479582,371.924908 C193.180754,372.331809 201.65992,379.473411 198.917082,393.349713 C210.011483,389.088645 218.416105,393.039817 224.130949,405.203228 C251.557381,396.876406 263.344816,403.54177 259.493254,425.199322 C265.09742,432.130312 267.532642,436.852643 266.798918,439.366314 C267.335355,439.944702 267.86519,440.512154 268.388422,441.06867 Z"/>
    <path fill="#8D6E63" d="M21,450.892578 C22.8190104,440.587891 32.2845052,436.035807 49.3964844,437.236328 C49.2330729,425.552734 55.3434245,422.410807 67.7275391,427.810547 C72.1910807,417.941406 79.7535807,412.26237 90.4150391,410.773438 C95.8629557,406.18099 103.601888,404.633464 113.631836,406.130859 C109.74056,397.253255 116.193685,389.89681 132.991211,384.061523 C143.258789,383.939128 149.236654,384.998698 150.924805,387.240234 C163.993164,372.266927 173.350586,364.186849 178.99707,363 C198.698242,363.406901 207.177409,370.548503 204.43457,384.424805 C215.528971,380.163737 223.933594,384.114909 229.648438,396.27832 C257.07487,387.951497 268.862305,394.616862 265.010742,416.274414 C270.614909,423.205404 273.05013,427.927734 272.316406,430.441406 C285.544922,444.704427 294.758464,452.317057 299.957031,453.279297 C305.155599,454.241536 302.831055,456.635091 292.983398,460.459961 C273.763346,463.536133 255.22526,462.710612 237.369141,457.983398 C227.998698,467.336263 210.88737,465.805664 186.035156,453.391602 C184.232934,456.097797 182.297713,457.628396 180.229492,457.983398 C174.292921,459.002388 165.095956,457.021895 161.82562,457.983398 C158.511763,458.957697 157.00038,461.928045 153.686523,462.902344 C147.200846,460.60026 143.932292,458.486328 143.880859,456.560547 C118.445964,462.996745 104.027995,461.72819 100.626953,452.754883 C85.4397302,454.243363 73.7916183,454.892777 65.6826172,454.703125 C56.0967398,454.478932 41.2025341,453.208749 21,450.892578 Z"/>
    <path stroke="#263238" stroke-width="10" d="M16,459.892578 C17.8190104,449.587891 27.2845052,445.035807 44.3964844,446.236328 C44.2330729,434.552734 50.3434245,431.410807 62.7275391,436.810547 C67.1910807,426.941406 74.7535807,421.26237 85.4150391,419.773438 C90.8629557,415.18099 98.601888,413.633464 108.631836,415.130859 C104.74056,406.253255 111.193685,398.89681 127.991211,393.061523 C138.258789,392.939128 144.236654,393.998698 145.924805,396.240234 C158.993164,381.266927 168.350586,373.186849 173.99707,372 C193.698242,372.406901 202.177409,379.548503 199.43457,393.424805 C210.528971,389.163737 218.933594,393.114909 224.648438,405.27832 C252.07487,396.951497 263.862305,403.616862 260.010742,425.274414 C265.614909,432.205404 268.05013,436.927734 267.316406,439.441406 C280.544922,453.704427 289.758464,461.317057 294.957031,462.279297 C300.155599,463.241536 297.831055,465.635091 287.983398,469.459961 C268.763346,472.536133 250.22526,471.710612 232.369141,466.983398 C222.998698,476.336263 205.88737,474.805664 181.035156,462.391602 C179.232934,465.097797 177.297713,466.628396 175.229492,466.983398 C169.292921,468.002388 160.095956,466.021895 156.82562,466.983398 C153.511763,467.957697 152.00038,470.928045 148.686523,471.902344 C142.200846,469.60026 138.932292,467.486328 138.880859,465.560547 C113.445964,471.996745 99.0279948,470.72819 95.6269531,461.754883 C80.4397302,463.243363 68.7916183,463.892777 60.6826172,463.703125 C51.0967398,463.478932 36.2025341,462.208749 16,459.892578 Z"/>
    <path stroke="#263238" stroke-width="9" d="M158,444.017028 C165.553755,437.235256 171.946008,433.897188 177.176758,434.002823 C184.654731,434.153841 195.864974,437.731008 203.889575,444.017028 C211.988251,437.226903 217.630203,433.888835 220.81543,434.002823 C225.618104,434.174694 228.342091,438.116025 232.623047,445.151794"/>
  </g>
</svg>
